<svg width="111" height="37" viewBox="0 0 111 37" fill="none" xmlns="http://www.w3.org/2000/svg">
<mask id="mask0_6145_30" style="mask-type:luminance" maskUnits="userSpaceOnUse" x="0" y="0" width="111" height="37">
<path d="M111 0H0V37H111V0Z" fill="white"/>
</mask>
<g mask="url(#mask0_6145_30)">
<path d="M100.249 0H10.7514C4.81355 0 0 4.82959 0 10.7872V26.2128C0 32.1704 4.81355 37 10.7514 37H100.249C106.186 37 111 32.1704 111 26.2128V10.7872C111 4.82959 106.186 0 100.249 0Z" fill="#153DCE"/>
<path d="M17.9521 24.9227H19.8599L24.5139 14.3614L27.2713 20.8263H23.6472L23.0113 22.1475H28.1014L29.1622 24.9227H31.2134L25.9095 13.5624C25.9095 13.5624 25.6365 12.9752 24.6686 12.978C23.8864 12.978 23.3574 12.9724 22.941 13.7262C22.4373 14.6436 17.9521 24.9227 17.9521 24.9227Z" fill="white"/>
<path d="M57.3105 14.7678C57.1332 14.4883 56.9193 14.2427 56.6915 14.0309C55.853 13.2546 54.7331 12.865 53.5935 12.865H51.0752C50.2423 12.865 49.4319 13.1304 48.7623 13.6273L48.7313 13.6498C48.5512 13.7853 48.388 13.9406 48.2445 14.11C47.6311 14.8129 47.3301 15.7361 47.3301 16.6734V24.8125H52.935C54.0437 24.8125 55.127 24.4991 56.0668 23.9119C56.4129 23.6945 56.7421 23.4659 56.9643 23.257C57.6932 22.5766 58.3825 21.4868 58.5935 19.4372C58.8074 17.3905 58.1968 16.1652 57.3077 14.7706L57.3105 14.7678ZM56.6886 20.4338C56.5648 20.8855 56.3313 21.2921 56.0527 21.6421C55.2057 22.7149 53.8833 23.2908 52.5186 23.2908H49.0239V14.4346C49.0239 14.4346 52.7803 14.2991 54.0999 14.4996C55.3521 14.6887 56.3285 15.9846 56.6183 16.7665C56.9109 17.5514 57.1782 18.6213 56.6858 20.431L56.6886 20.4338Z" fill="white"/>
<path d="M42.1472 15.0134C41.9699 14.7367 41.756 14.4911 41.5253 14.2794C40.6897 13.503 39.5669 13.1106 38.4274 13.1106H35.9091C35.0762 13.1106 34.2686 13.3788 33.5962 13.8757L33.568 13.8983C32.6001 14.6153 32.1611 15.9733 32.1611 15.9733V25.0581H36.9839C38.3936 25.0581 39.7921 24.7222 41.0217 24.0305C41.3368 23.8527 41.6154 23.6691 41.8011 23.5026C42.5299 22.8222 43.2192 21.7324 43.4303 19.6829C43.6413 17.6361 43.0335 16.408 42.1444 15.0134H42.1472ZM41.5225 20.6823C41.3987 21.134 41.168 21.5405 40.8895 21.8906C40.0425 22.9633 38.7172 23.5393 37.3525 23.5393H33.8578V14.6803C33.8578 14.6803 38.0701 14.4092 38.9367 14.7481C40.1888 15.2365 41.0301 16.2104 41.3227 16.9952C41.6126 17.7801 42.0093 18.8726 41.5197 20.6823H41.5225Z" fill="white"/>
<path d="M64.3759 18.1357L64.0303 19.5981H70.1107V18.1357H64.3759Z" fill="white"/>
<path d="M84.1846 12.9919V24.9705H85.8478V19.3299H88.5688L92.4574 24.9705H94.6858L91.1092 19.8013C90.9262 19.5388 90.6028 19.0052 90.3298 18.8387L89.632 18.6721L90.3748 18.3418C90.6622 18.1668 90.9124 17.8223 91.126 17.5654L94.8826 12.9919H92.3362L88.3066 18.195H85.8928L85.918 12.9919H84.1846Z" fill="white"/>
<path d="M70.6593 12.9272L70.2375 14.511H65.5077C65.1219 14.511 64.7391 14.5872 64.3821 14.7341C62.7699 15.4003 61.4559 17.416 61.6917 19.5193C61.8609 21.0099 62.8149 22.6078 64.3341 23.1667C64.8741 23.3672 65.3667 23.3898 65.7015 23.3785H70.6593L70.2033 25.0329H65.0457C64.5735 25.0329 64.4493 25.0329 63.9207 24.903L63.4845 24.7138C62.6685 24.3129 61.1883 23.4942 60.2769 21.6197C59.1821 19.364 59.97 17.1732 60.0825 16.8684C60.2175 16.5126 60.7551 15.1886 62.1507 14.1412C62.2323 14.0791 62.3139 14.0226 62.3955 13.9689C63.3945 13.2943 64.5873 12.9667 65.7945 12.9583L70.6569 12.9272H70.6593Z" fill="white"/>
<path d="M82.567 12.93V14.4743H75.6898C75.5518 14.5025 75.355 14.559 75.1522 14.686C74.6068 15.0219 74.0746 15.8124 74.314 16.6989C74.5222 17.4668 75.2314 18.0088 76.039 18.0088H80.1892C80.3746 18.0399 80.6308 18.0992 80.9122 18.2206C81.8296 18.6101 82.7638 19.5192 83.0116 20.8178C83.3098 22.3903 82.4092 23.545 82.288 23.6946C81.4948 24.6771 80.431 24.9057 80.1442 24.9566H72.2656L72.8254 23.2712L80.0062 23.3192C80.1298 23.2712 80.299 23.1864 80.4736 23.0509C80.929 22.6896 81.4048 21.9612 81.2302 21.0973C81.0838 20.3746 80.5324 19.7931 79.8094 19.6011H75.043C74.8264 19.5333 74.5276 19.4147 74.2042 19.2143C73.9198 19.0393 72.8764 18.3928 72.55 17.097C72.1528 15.5301 73.132 14.2823 73.2502 14.1383C74.0188 13.1926 75.043 12.9582 75.3496 12.8989L82.5754 12.9328L82.567 12.93Z" fill="white"/>
</g>
</svg>
